<svg data-v-423bf9ae="" xmlns="http://www.w3.org/2000/svg" viewBox="0 0 132.60745390733655 60" class="font"><!----><!----><!----><g data-v-423bf9ae="" id="4958aabd-33ec-43b2-a86a-58aad1964067" fill="black" transform="matrix(5.730658879632186,0,0,5.730658879632186,-3.6103159434308765,-35.53008348384596)"><path d="M5.87 12.93L5.87 12.83L5.87 12.83Q5.52 13.20 5.06 13.41L5.06 13.41L5.06 13.41Q4.59 13.61 4.01 13.61L4.01 13.61L4.01 13.61Q3.29 13.61 2.67 13.36L2.67 13.36L2.67 13.36Q2.05 13.11 1.60 12.63L1.60 12.63L1.60 12.63Q1.14 12.15 0.89 11.45L0.89 11.45L0.89 11.45Q0.63 10.75 0.63 9.84L0.63 9.84L0.63 9.84Q0.63 9.02 0.88 8.35L0.88 8.35L0.88 8.35Q1.12 7.68 1.57 7.20L1.57 7.20L1.57 7.20Q2.02 6.73 2.66 6.46L2.66 6.46L2.66 6.46Q3.29 6.20 4.07 6.20L4.07 6.20L4.07 6.20Q4.61 6.20 5.03 6.32L5.03 6.32L5.03 6.32Q5.46 6.44 5.87 6.73L5.87 6.73L5.87 6.37L7.14 6.37L7.14 13.17L7.14 13.17Q7.14 14.85 6.34 15.72L6.34 15.72L6.34 15.72Q5.54 16.58 3.86 16.58L3.86 16.58L3.86 16.58Q3.49 16.58 3.09 16.52L3.09 16.52L3.09 16.52Q2.69 16.47 2.29 16.35L2.29 16.35L2.29 16.35Q1.90 16.23 1.53 16.04L1.53 16.04L1.53 16.04Q1.16 15.86 0.84 15.59L0.84 15.59L1.52 14.56L1.52 14.56Q1.73 14.74 1.99 14.89L1.99 14.89L1.99 14.89Q2.26 15.04 2.56 15.15L2.56 15.15L2.56 15.15Q2.86 15.25 3.18 15.31L3.18 15.31L3.18 15.31Q3.50 15.37 3.82 15.37L3.82 15.37L3.82 15.37Q4.35 15.37 4.73 15.26L4.73 15.26L4.73 15.26Q5.12 15.16 5.37 14.88L5.37 14.88L5.37 14.88Q5.62 14.60 5.74 14.13L5.74 14.13L5.74 14.13Q5.87 13.66 5.87 12.93L5.87 12.93ZM4.17 12.50L4.17 12.50L4.17 12.50Q4.48 12.50 4.74 12.44L4.74 12.44L4.74 12.44Q5.00 12.38 5.22 12.28L5.22 12.28L5.22 12.28Q5.43 12.18 5.59 12.05L5.59 12.05L5.59 12.05Q5.75 11.92 5.87 11.78L5.87 11.78L5.87 7.90L5.87 7.90Q5.52 7.59 5.06 7.46L5.06 7.46L5.06 7.46Q4.61 7.32 4.13 7.32L4.13 7.32L4.13 7.32Q3.68 7.32 3.28 7.49L3.28 7.49L3.28 7.49Q2.88 7.66 2.59 7.98L2.59 7.98L2.59 7.98Q2.29 8.30 2.12 8.76L2.12 8.76L2.12 8.76Q1.95 9.23 1.95 9.83L1.95 9.83L1.95 9.83Q1.95 10.49 2.11 10.99L2.11 10.99L2.11 10.99Q2.28 11.48 2.57 11.82L2.57 11.82L2.57 11.82Q2.86 12.16 3.27 12.33L3.27 12.33L3.27 12.33Q3.68 12.50 4.17 12.50ZM13.05 13.45L13.05 12.80L13.05 12.80Q12.65 13.17 12.16 13.41L12.16 13.41L12.16 13.41Q11.67 13.65 11.05 13.65L11.05 13.65L11.05 13.65Q10.53 13.65 10.09 13.49L10.09 13.49L10.09 13.49Q9.66 13.32 9.34 13.04L9.34 13.04L9.34 13.04Q9.03 12.76 8.86 12.38L8.86 12.38L8.86 12.38Q8.68 12.00 8.68 11.58L8.68 11.58L8.68 11.58Q8.68 11.13 8.81 10.78L8.81 10.78L8.81 10.78Q8.95 10.43 9.17 10.18L9.17 10.18L9.17 10.18Q9.39 9.92 9.69 9.74L9.69 9.74L9.69 9.74Q9.99 9.57 10.31 9.46L10.31 9.46L10.31 9.46Q10.64 9.36 10.98 9.31L10.98 9.31L10.98 9.31Q11.31 9.27 11.62 9.27L11.62 9.27L11.62 9.27Q12.11 9.27 12.45 9.30L12.45 9.30L12.45 9.30Q12.78 9.33 13.06 9.39L13.06 9.39L13.06 8.80L13.06 8.80Q13.06 8.43 12.95 8.15L12.95 8.15L12.95 8.15Q12.84 7.88 12.65 7.69L12.65 7.69L12.65 7.69Q12.45 7.51 12.17 7.42L12.17 7.42L12.17 7.42Q11.89 7.33 11.55 7.33L11.55 7.33L11.55 7.33Q11.23 7.33 10.94 7.38L10.94 7.38L10.94 7.38Q10.64 7.42 10.39 7.50L10.39 7.50L10.39 7.50Q10.13 7.57 9.92 7.66L9.92 7.66L9.92 7.66Q9.70 7.75 9.55 7.85L9.55 7.85L9.13 6.97L9.13 6.97Q9.39 6.81 9.69 6.67L9.69 6.67L9.69 6.67Q9.99 6.53 10.32 6.43L10.32 6.43L10.32 6.43Q10.65 6.33 11.00 6.27L11.00 6.27L11.00 6.27Q11.34 6.21 11.68 6.21L11.68 6.21L11.68 6.21Q12.29 6.21 12.78 6.36L12.78 6.36L12.78 6.36Q13.28 6.51 13.62 6.82L13.62 6.82L13.62 6.82Q13.96 7.12 14.14 7.60L14.14 7.60L14.14 7.60Q14.33 8.07 14.33 8.74L14.33 8.74L14.32 12.28L15.11 12.28L15.11 13.45L13.05 13.45ZM11.33 12.58L11.33 12.58L11.33 12.58Q11.58 12.58 11.83 12.52L11.83 12.52L11.83 12.52Q12.09 12.46 12.31 12.36L12.31 12.36L12.31 12.36Q12.54 12.25 12.73 12.11L12.73 12.11L12.73 12.11Q12.92 11.97 13.05 11.82L13.05 11.82L13.06 10.22L11.58 10.22L11.58 10.22Q11.21 10.22 10.91 10.30L10.91 10.30L10.91 10.30Q10.60 10.38 10.38 10.54L10.38 10.54L10.38 10.54Q10.16 10.70 10.04 10.93L10.04 10.93L10.04 10.93Q9.91 11.16 9.91 11.46L9.91 11.46L9.91 11.46Q9.91 11.74 10.01 11.95L10.01 11.95L10.01 11.95Q10.12 12.16 10.31 12.30L10.31 12.30L10.31 12.30Q10.49 12.44 10.75 12.51L10.75 12.51L10.75 12.51Q11.01 12.58 11.33 12.58ZM16.26 7.55L16.26 6.37L18.52 6.37L18.52 6.96L18.52 6.96Q18.97 6.61 19.50 6.41L19.50 6.41L19.50 6.41Q20.04 6.20 20.60 6.20L20.60 6.20L20.60 6.20Q21.30 6.20 21.88 6.46L21.88 6.46L21.88 6.46Q22.46 6.72 22.88 7.19L22.88 7.19L22.88 7.19Q23.30 7.66 23.54 8.32L23.54 8.32L23.54 8.32Q23.77 8.98 23.77 9.78L23.77 9.78L23.77 9.78Q23.77 10.64 23.51 11.34L23.51 11.34L23.51 11.34Q23.25 12.04 22.79 12.55L22.79 12.55L22.79 12.55Q22.33 13.05 21.69 13.33L21.69 13.33L21.69 13.33Q21.05 13.61 20.30 13.61L20.30 13.61L20.30 13.61Q19.76 13.61 19.34 13.50L19.34 13.50L19.34 13.50Q18.92 13.38 18.53 13.21L18.53 13.21L18.53 15.50L19.64 15.50L19.64 16.67L16.28 16.67L16.28 15.50L17.25 15.50L17.25 7.55L16.26 7.55ZM20.27 7.32L20.27 7.32L20.27 7.32Q19.78 7.32 19.32 7.52L19.32 7.52L19.32 7.52Q18.87 7.72 18.53 8.07L18.53 8.07L18.53 11.90L18.53 11.90Q18.76 12.13 19.18 12.32L19.18 12.32L19.18 12.32Q19.60 12.50 20.23 12.50L20.23 12.50L20.23 12.50Q20.67 12.50 21.07 12.33L21.07 12.33L21.07 12.33Q21.47 12.16 21.78 11.82L21.78 11.82L21.78 11.82Q22.09 11.48 22.27 10.99L22.27 10.99L22.27 10.99Q22.46 10.49 22.46 9.83L22.46 9.83L22.46 9.83Q22.46 9.23 22.28 8.76L22.28 8.76L22.28 8.76Q22.11 8.30 21.81 7.98L21.81 7.98L21.81 7.98Q21.51 7.66 21.12 7.49L21.12 7.49L21.12 7.49Q20.72 7.32 20.27 7.32Z"></path></g><!----><!----></svg>